# xmcd
#
# Track frame offsets:
#	150
#	15372
#	32944
#	49913
#	69069
#	82490
#	97784
#	113935
#	130239
#	144212
#	160453
#	174411
#	190263
#	206911
#	219858
#	233425
#	247795
#	261456
#	278294
#	296945
#	313018
#
# Disc length: 4385 seconds
#
# Revision: 0
# Processed by: cddbd v1.5.2PL0 Copyright (c) Steve Scherf et al.
# Submitted via: dBpowerAMP V4.0
#
DISCID=27111f15
DTITLE=Various Artist - ERG Nu Country Traxx Vol. 229 CAN
DYEAR=2013
DGENRE=Country
TTITLE0=Keith Urban - Little Bit Of Everything
TTITLE1=Jason Aldean - Night Train
TTITLE2=Dierks Bentley - Bourbon In Kentucky
TTITLE3=Kenny Chesney - When I See This Bar
TTITLE4=Thompson Square (Stoney Creek) - Everything I Shouldn't Be Thinking About
TTITLE5=Florida Georgia Line - Round Here
TTITLE6=Gord Bamford - Must Be A Woman
TTITLE7=Cassadee Pope - Wasting All These Tears
TTITLE8=Jana Kramer - I Hope It Rains
TTITLE9=Charlie Major - (Make It) A Night To Remember
TTITLE10=Kix Brooks - There's The Sun
TTITLE11=Aaron Pritchett - Suntan City
TTITLE12=David Nail - Whatever She's Got
TTITLE13=Lauren Alaina - Barefoot And Buckwild
TTITLE14=Morgan Frazier - Yellow Brick Road
TTITLE15=Ashley Monroe - You Got Me
TTITLE16=Michelle Wright - Strong
TTITLE17=Aaron Lewis - Granddaddy's Gun
TTITLE18=Kellie Pickler - Someone Somewhere Tonight
TTITLE19=Weston Burt - Lucky Sometimes
TTITLE20=Tenille - Dear Heart
EXTD=
EXTT0=
EXTT1=
EXTT2=
EXTT3=
EXTT4=
EXTT5=
EXTT6=
EXTT7=
EXTT8=
EXTT9=
EXTT10=
EXTT11=
EXTT12=
EXTT13=
EXTT14=
EXTT15=
EXTT16=
EXTT17=
EXTT18=
EXTT19=
EXTT20=
PLAYORDER=
